<!DOCTYPE svg PUBLIC "-//W3C//DTD SVG 20010904//EN" "http://www.w3.org/TR/2001/REC-SVG-20010904/DTD/svg10.dtd">
<svg version="1.0" xmlns="http://www.w3.org/2000/svg" width="326px" height="276px" viewBox="0 0 3260 2760" preserveAspectRatio="xMidYMid meet">
<g id="layer101" fill="#000000" stroke="none">
</g>
<g id="layer102" fill="#ffffff" stroke="none">
<path d="M202 2753 c-12 -3 -33 -16 -47 -31 -103 -112 -113 -134 -95 -203 16 -59 47 -74 214 -104 178 -33 246 -62 283 -124 13 -23 28 -41 32 -41 11 0 81 -117 81 -134 0 -6 5 -17 11 -23 13 -13 14 -64 3 -128 -15 -86 -10 -322 10 -395 36 -136 108 -287 177 -370 36 -44 37 -47 35 -125 -1 -72 2 -86 30 -135 56 -100 164 -145 277 -115 99 26 177 94 208 183 9 25 23 38 65 58 60 28 127 98 144 150 9 27 22 38 60 55 60 26 129 98 156 161 10 27 26 48 34 48 60 2 177 117 195 191 5 20 18 31 53 45 59 22 134 97 156 156 16 41 25 50 83 78 124 61 182 187 148 323 -16 65 -16 65 8 104 43 69 177 122 345 138 29 3 63 12 77 21 73 47 78 154 9 199 -23 15 -93 16 -984 15 -680 -1 -709 -1 -1270 3 -261 2 -485 2 -498 0z"/>
<path d="M2465 1841 c-16 -10 -58 -48 -92 -84 -52 -54 -63 -72 -63 -100 0 -35 59 -160 121 -257 20 -30 39 -69 43 -85 11 -46 306 -629 346 -685 12 -16 39 -69 62 -116 30 -65 41 -103 44 -149 3 -58 2 -63 -19 -69 -43 -11 -65 -6 -117 30 -56 38 -115 74 -165 98 -16 8 -52 34 -80 57 -27 23 -69 50 -93 60 -24 10 -64 33 -90 51 -26 18 -67 44 -92 58 -25 14 -75 47 -110 73 -141 105 -328 219 -468 288 -82 40 -84 40 -110 23 -56 -37 -182 -171 -182 -194 0 -27 0 -28 170 -140 74 -49 173 -116 220 -148 47 -33 119 -79 160 -102 41 -24 109 -67 150 -95 41 -28 122 -78 180 -112 148 -85 272 -162 295 -183 11 -10 36 -27 55 -39 33 -20 49 -21 271 -21 l236 0 42 38 c23 21 46 53 51 72 6 19 16 121 22 226 l12 190 -61 115 c-34 63 -81 152 -105 199 -25 47 -56 103 -70 125 -14 22 -34 61 -45 86 -12 26 -30 56 -42 68 -12 12 -43 65 -70 119 -26 53 -55 111 -64 127 -9 17 -30 67 -48 112 -17 46 -45 106 -63 135 -17 29 -44 82 -60 118 -52 118 -105 153 -171 111z"/>
</g>


</svg>